<svg width="17" height="15" viewBox="0 0 17 15" fill="none" xmlns="http://www.w3.org/2000/svg">
<path d="M11.7189 0.233887C14.2528 0.241634 16.305 2.309 16.3127 4.86161V6.01854L16.3076 6.09512C16.2705 6.37058 16.0361 6.5829 15.7525 6.5829L15.7455 6.56879L15.6573 6.56176C15.5414 6.54315 15.4334 6.48816 15.3493 6.40349C15.2443 6.29765 15.1853 6.15411 15.1853 6.00443V4.86161C15.1663 2.94103 13.6254 1.38877 11.7189 1.36965H5.07321C3.16669 1.38877 1.62579 2.94103 1.60682 4.86161V9.85616C1.62579 11.7767 3.16669 13.329 5.07321 13.3481H11.7189C13.6254 13.329 15.1663 11.7767 15.1853 9.85616C15.2173 9.56691 15.4601 9.34815 15.749 9.34815C16.0379 9.34815 16.2807 9.56691 16.3127 9.85616C16.305 12.4088 14.2528 14.4761 11.7189 14.4839H5.07321C2.5377 14.48 0.483226 12.4104 0.47937 9.85616V4.86161C0.47937 2.30579 2.5361 0.233887 5.07321 0.233887H11.7189ZM3.87913 4.49854C4.02659 4.48262 4.17422 4.52702 4.28889 4.62176L7.58021 7.24602C7.99134 7.57097 8.56964 7.57097 8.98077 7.24602L12.2371 4.62176H12.2441L12.3127 4.57453C12.5493 4.43612 12.8567 4.4872 13.0354 4.70641C13.129 4.82397 13.1721 4.97438 13.155 5.12413C13.1379 5.27387 13.0621 5.4105 12.9444 5.50356L9.68805 8.13488C8.86007 8.80608 7.6799 8.80608 6.85192 8.13488L3.58861 5.50356L3.52836 5.44587C3.34434 5.24193 3.32936 4.92847 3.50458 4.70641C3.59672 4.58935 3.73167 4.51445 3.87913 4.49854Z" fill="#696969"/>
</svg>
