<svg width="17" height="17" viewBox="0 0 17 17" fill="none" xmlns="http://www.w3.org/2000/svg">
<path d="M15.1722 5.90094C15.4902 5.90477 15.7459 6.16307 15.7459 6.48038V11.6046C15.7459 14.5366 13.9128 16.3587 10.9743 16.3587H8.6374C8.31552 16.3587 8.05351 16.1004 8.04968 15.7793C8.05346 15.457 8.31439 15.1966 8.6374 15.1929H10.9743C13.2901 15.1929 14.5705 13.9223 14.5915 11.6046V6.48038C14.5915 6.16037 14.8515 5.90094 15.1722 5.90094ZM10.3935 1.13979C10.7154 1.14362 10.9743 1.40505 10.9743 1.72621C10.9743 1.8811 10.9121 2.02955 10.8017 2.13842C10.6913 2.24729 10.5418 2.30751 10.3865 2.30565H5.24405C2.92818 2.30565 1.6478 3.5832 1.6478 5.90094V11.6046C1.6478 13.9223 2.92818 15.1929 5.24405 15.1929C5.56706 15.1966 5.82798 15.457 5.83176 15.7793C5.82793 16.1004 5.56592 16.3587 5.24405 16.3587C2.30548 16.3587 0.47937 14.5366 0.47937 11.6046V5.90094C0.47937 2.96188 2.30548 1.13979 5.24405 1.13979H10.3935ZM11.2782 6.44243C11.4825 6.30324 11.7578 6.30724 11.9594 6.46197C12.1862 6.63604 12.2521 6.949 12.1147 7.19944L9.87579 10.0827C9.77778 10.2034 9.63799 10.2831 9.48398 10.3061C9.33071 10.3216 9.17745 10.2765 9.05719 10.1804L6.90924 8.49794L4.97818 11.0042C4.8861 11.1292 4.74763 11.2121 4.59376 11.2344C4.4399 11.2567 4.2835 11.2165 4.15958 11.1229C3.90667 10.925 3.85992 10.5612 4.05463 10.3061L6.34251 7.33208C6.43795 7.20878 6.57864 7.12844 6.73354 7.1088C6.88843 7.08915 7.04479 7.13181 7.16811 7.22737L9.31606 8.90983L11.2051 6.50132L11.2782 6.44243ZM13.4636 0.683695C14.232 0.363812 15.1179 0.537685 15.7077 1.12413C16.2974 1.71058 16.4747 2.59392 16.1567 3.36173C15.8388 4.12954 15.0883 4.63037 14.2557 4.63037C13.1223 4.63037 12.2025 3.71571 12.1986 2.58489L12.2033 2.43919C12.2555 1.66731 12.7404 0.984761 13.4636 0.683695ZM14.2557 1.69828C13.7649 1.69828 13.3671 2.09523 13.3671 2.58489C13.3671 3.07455 13.7649 3.4715 14.2557 3.4715C14.7464 3.4715 15.1442 3.07455 15.1442 2.58489C15.1442 2.09523 14.7464 1.69828 14.2557 1.69828Z" fill="#696969"/>
</svg>
