<svg width="16" height="16" viewBox="0 0 16 16" fill="none" xmlns="http://www.w3.org/2000/svg">
<path d="M13.2385 8.30818C14.4947 8.31207 15.5133 9.34864 15.5209 10.6311V12.904C15.5133 14.1876 14.4959 15.2263 13.2385 15.234H11.0119C9.75567 15.2262 8.74027 14.1865 8.73646 12.904V10.6311C8.73646 9.34817 9.75521 8.30818 11.0119 8.30818H13.2385ZM3.67604 8.3082C3.90982 8.28264 4.13739 8.39558 4.26211 8.59905C4.38683 8.80252 4.38683 9.06082 4.26211 9.26428C4.13739 9.46775 3.90982 9.58069 3.67604 9.55514H2.76167C2.17844 9.55512 1.70457 10.0357 1.70073 10.6311V12.8756C1.71556 13.4662 2.18305 13.9403 2.76167 13.9515H5.00222C5.28295 13.9534 5.55283 13.8409 5.752 13.6389C5.95117 13.4369 6.06317 13.1622 6.06316 12.8756V9.50526L6.05363 9.42142C6.0431 9.19843 6.15005 8.98367 6.33827 8.86185C6.55001 8.7248 6.82209 8.73287 7.02567 8.88225C7.22926 9.03163 7.32347 9.29232 7.2637 9.54088V12.8969C7.2637 14.1838 6.24183 15.2269 4.98128 15.2269H2.76167C1.51202 15.2005 0.505175 14.1726 0.479248 12.8969V10.6311C0.479248 10.0138 0.719937 9.42185 1.14818 8.98602C1.57642 8.5502 2.15698 8.3063 2.76167 8.3082H3.67604ZM13.2385 9.55512H11.0119C10.4298 9.55512 9.95792 10.0368 9.95792 10.6311V12.904C9.95607 13.19 10.0665 13.4648 10.2646 13.667C10.4626 13.8692 10.7318 13.9819 11.0119 13.98H13.2385C13.5186 13.9819 13.7878 13.8692 13.9858 13.667C14.1839 13.4648 14.2943 13.19 14.2925 12.904V10.6311C14.2925 10.3457 14.1814 10.072 13.9838 9.87026C13.7861 9.66848 13.518 9.55512 13.2385 9.55512ZM13.2385 0.192383C14.4854 0.222608 15.4881 1.24938 15.5139 2.52238V4.78825C15.5214 5.40433 15.2888 5.99819 14.8673 6.43917C14.4458 6.88014 13.8699 7.13211 13.2664 7.13962H12.3451C12.0329 7.10551 11.7962 6.83662 11.7962 6.51615C11.7962 6.19569 12.0329 5.9268 12.3451 5.89268H13.2385C13.5211 5.89081 13.7913 5.77391 13.9891 5.56792C14.187 5.36192 14.2962 5.08385 14.2925 4.79537V2.52238C14.2849 1.93137 13.8174 1.45413 13.2385 1.44645H11.0119C10.4298 1.44645 9.95794 1.92816 9.95794 2.52238V5.92118L9.94964 6.00572C9.89966 6.30928 9.63938 6.5377 9.32975 6.53397C9.16744 6.53026 9.01334 6.46035 8.90186 6.33986C8.79039 6.21936 8.73082 6.05832 8.73646 5.89268V2.52238C8.7346 1.90508 8.97352 1.31242 9.40045 0.875254C9.82738 0.438088 10.4072 0.192383 11.0119 0.192383H13.2385ZM4.98826 0.192383C6.24722 0.196295 7.26685 1.23718 7.27068 2.52238V4.79537C7.27068 5.41267 7.02999 6.00459 6.60175 6.44042C6.17351 6.87625 5.59295 7.12014 4.98826 7.11826H2.76167C1.50542 7.11436 0.486902 6.07779 0.479248 4.79537V2.52238C0.486869 1.23879 1.50429 0.200162 2.76167 0.192383H4.98826ZM4.98826 1.44645H2.76167C2.47853 1.4407 2.20504 1.55152 2.00283 1.75392C1.80063 1.95633 1.68671 2.23328 1.68677 2.52238V4.79537C1.68101 5.08816 1.79241 5.37069 1.99526 5.57777C2.1981 5.78484 2.47486 5.89856 2.76167 5.89268H4.98826C5.27086 5.89081 5.54105 5.77391 5.73891 5.56792C5.93677 5.36192 6.04595 5.08385 6.04222 4.79537V2.52238C6.03841 1.92978 5.56876 1.45033 4.98826 1.44645Z" fill="#696969"/>
</svg>
