<svg width="17" height="16" viewBox="0 0 17 16" fill="none" xmlns="http://www.w3.org/2000/svg">
<path d="M5.80706 2.54175C6.12273 2.51885 6.41354 2.73255 6.47722 3.04887C6.54621 3.39155 6.32251 3.72491 5.97757 3.79345C3.50863 4.31519 1.74531 6.48406 1.75131 8.99171C1.74556 9.18768 1.75718 9.38377 1.78601 9.57772C2.09051 12.0814 4.13233 14.0231 6.66342 14.2158C9.1945 14.4086 11.5104 12.7989 12.1955 10.3706L12.2249 10.2909C12.3504 10.0101 12.6659 9.85487 12.9727 9.93622C13.137 9.97515 13.2783 10.0785 13.3646 10.2226C13.4509 10.3668 13.4748 10.5395 13.4308 10.7015C12.9595 12.4104 11.8099 13.856 10.2455 14.707C8.32584 15.7641 6.00178 15.7993 4.05056 14.801C2.09935 13.8027 0.778556 11.9027 0.529934 9.73629C0.489604 9.48328 0.47334 9.22706 0.481356 8.97102C0.478004 5.86668 2.66879 3.18642 5.72774 2.55248L5.80706 2.54175ZM9.53761 0.484212C12.9217 0.582582 15.7598 3.05221 16.3038 6.3719H16.3107V6.4822L16.3127 6.59822C16.3038 6.86779 16.2009 7.12734 16.0195 7.33128C15.8123 7.56436 15.5198 7.70546 15.2073 7.72317L10.0026 8.06788H9.91929C9.2593 8.0665 8.71037 7.56312 8.65628 6.90965L8.30929 1.73207C8.28844 1.40546 8.40681 1.0852 8.63546 0.849606C8.87215 0.608772 9.1989 0.476429 9.53761 0.484212ZM9.57231 1.73896L9.91929 6.82691L15.0546 6.4891C14.575 3.82416 12.2951 1.84872 9.57231 1.73896Z" fill="#696969"/>
</svg>
