<svg width="20" height="23" viewBox="0 0 20 23" fill="none" xmlns="http://www.w3.org/2000/svg">
<path fill-rule="evenodd" clip-rule="evenodd" d="M7.8293 20.2076C8.36138 20.8002 9.04446 21.1259 9.75323 21.1259H9.75425C10.4661 21.1259 11.1523 20.8002 11.6854 20.2065C11.9709 19.8912 12.4578 19.8655 12.7732 20.15C13.0895 20.4346 13.1152 20.9225 12.8307 21.2378C12.0007 22.1592 10.9088 22.6667 9.75425 22.6667H9.7522C8.60072 22.6656 7.51087 22.1582 6.68398 21.2368C6.39944 20.9215 6.42512 20.4335 6.7415 20.15C7.05787 19.8645 7.54476 19.8902 7.8293 20.2076ZM9.80438 0.582031C14.3702 0.582031 17.4374 4.13817 17.4374 7.45908C17.4374 9.1673 17.8719 9.89147 18.3332 10.6598C18.7892 11.4179 19.3059 12.2787 19.3059 13.9057C18.9474 18.0628 14.6075 18.4018 9.80438 18.4018C5.00123 18.4018 0.660317 18.0628 0.305922 13.9715C0.302854 12.2787 0.819532 11.4179 1.2756 10.6598L1.43661 10.3888C1.83304 9.70746 2.17132 8.96633 2.17132 7.45908C2.17132 4.13817 5.23851 0.582031 9.80438 0.582031ZM9.80438 2.12282C6.21434 2.12282 3.7121 4.93527 3.7121 7.45908C3.7121 9.59461 3.11941 10.5817 2.59555 11.4528C2.17542 12.1523 1.84364 12.7049 1.84364 13.9057C2.01518 15.843 3.29404 16.861 9.80438 16.861C16.2788 16.861 17.5977 15.7978 17.7682 13.839C17.7651 12.705 17.4333 12.1523 17.0132 11.4528C16.4893 10.5817 15.8967 9.59461 15.8967 7.45908C15.8967 4.93527 13.3944 2.12282 9.80438 2.12282Z" fill="#2B2C2D"/>
</svg>
