<svg width="17" height="16" viewBox="0 0 17 16" fill="none" xmlns="http://www.w3.org/2000/svg">
<path d="M10.4926 10.4961C10.8203 10.4961 11.0863 10.7555 11.0863 11.0752V11.7829C11.0863 13.6226 9.55196 15.1193 7.66526 15.1193H3.90729C2.0175 15.1193 0.479309 13.6188 0.479309 11.7747C0.479309 11.455 0.745313 11.1963 1.073 11.1963C1.40068 11.1963 1.66669 11.455 1.66669 11.7747C1.66669 12.981 2.6721 13.961 3.90729 13.961H7.66526C8.89736 13.961 9.89892 12.9841 9.89892 11.7829V11.0752C9.89892 10.7555 10.1649 10.4961 10.4926 10.4961ZM15.7188 7.01874C15.9593 7.01874 16.176 7.16014 16.2677 7.3775C16.3595 7.59411 16.3078 7.84381 16.1382 8.00927L13.8853 10.1972C13.7689 10.3092 13.6177 10.3664 13.4658 10.3664C13.3139 10.3664 13.1613 10.3092 13.0456 10.1957C12.8143 9.96853 12.8143 9.60225 13.0472 9.37662L14.2816 8.17775H6.45568C6.12799 8.17775 5.86122 7.91827 5.86122 7.59862C5.86122 7.27897 6.12799 7.01874 6.45568 7.01874H15.7188ZM7.65771 0.0776367C9.54826 0.0776367 11.0865 1.5781 11.0865 3.42228V4.1225C11.0865 4.4414 10.8205 4.70088 10.4928 4.70088C10.1651 4.70088 9.89908 4.4414 9.89908 4.1225V3.42228C9.89908 2.2159 8.89366 1.23589 7.65771 1.23589H3.9005C2.6684 1.23589 1.66684 2.21364 1.66684 3.41401V9.14135C1.66684 9.461 1.40084 9.72048 1.07315 9.72048C0.745467 9.72048 0.479463 9.461 0.479463 9.14135V3.41401C0.479463 1.57434 2.0138 0.0776367 3.9005 0.0776367H7.65771ZM13.0441 5.0039C13.2754 4.77526 13.6501 4.77376 13.8837 4.99939L14.4512 5.54693C14.6848 5.77256 14.6864 6.13884 14.4558 6.36598C14.3394 6.4803 14.1867 6.53821 14.0341 6.53821C13.883 6.53821 13.7318 6.48181 13.6162 6.37049L13.0479 5.8222C12.8151 5.59732 12.8136 5.23029 13.0441 5.0039Z" fill="#FF6751"/>
</svg>
