<svg width="20" height="20" viewBox="0 0 20 20" fill="none" xmlns="http://www.w3.org/2000/svg">
<path d="M19.4792 12.2801V13.5945C19.4792 13.8126 19.4697 14.0326 19.4506 14.2507C19.1841 17.2518 17.0994 19.2129 14.0914 19.2129H5.86697C4.34393 19.2129 3.05886 18.7186 2.13551 17.8224C1.77379 17.49 1.46918 17.0995 1.2312 16.6518C1.54533 16.2699 1.89753 15.8518 2.24022 15.4327C2.82088 14.7374 3.3825 14.0507 3.73471 13.604C4.25826 12.9564 5.63852 11.2515 7.55184 12.0516C7.94212 12.2135 8.28481 12.4421 8.59894 12.6421C9.36998 13.1564 9.69363 13.3088 10.2362 13.0135C10.8359 12.6897 11.2262 12.0516 11.6355 11.3849C11.8544 11.0315 12.0734 10.6896 12.3114 10.3753C13.3489 9.02282 14.9481 8.6609 16.2808 9.46094C16.9471 9.86096 17.5183 10.3658 18.0513 10.8791C18.1656 10.9934 18.2798 11.0991 18.3845 11.2039C18.5273 11.3468 19.0032 11.823 19.4792 12.2801Z" fill="#1163F8"/>
<path opacity="0.1" d="M14.1011 0.212891H5.86708C2.64013 0.212891 0.479309 2.47016 0.479309 5.8313V13.5946C0.479309 14.7651 0.745842 15.8042 1.23131 16.6519C1.54544 16.27 1.89765 15.8518 2.24033 15.4318C2.82099 14.7375 3.38262 14.0508 3.73482 13.6041C4.25837 12.9564 5.63863 11.2516 7.55195 12.0516C7.94223 12.2136 8.28492 12.4421 8.59905 12.6421C9.37009 13.1565 9.69374 13.3089 10.2363 13.0126C10.836 12.6898 11.2263 12.0516 11.6356 11.384C11.8546 11.0316 12.0735 10.6897 12.3115 10.3754C13.349 9.0229 14.9482 8.66098 16.2809 9.46102C16.9472 9.86104 17.5184 10.3658 18.0515 10.8792C18.1657 10.9935 18.2799 11.0992 18.3846 11.204C18.5274 11.3459 19.0034 11.8221 19.4793 12.2802V5.8313C19.4793 2.47016 17.3185 0.212891 14.1011 0.212891Z" fill="#1163F8"/>
<path d="M9.461 6.6698C9.461 8.00797 8.34632 9.12232 7.00889 9.12232C5.67242 9.12232 4.55774 8.00797 4.55774 6.6698C4.55774 5.33258 5.67242 4.21729 7.00889 4.21729C8.34632 4.21729 9.461 5.33258 9.461 6.6698Z" fill="#1163F8"/>
</svg>
