<svg width="20" height="21" viewBox="0 0 20 21" fill="none" xmlns="http://www.w3.org/2000/svg">
<path fill-rule="evenodd" clip-rule="evenodd" d="M9.80792 0.909668C14.8428 0.909668 18.9382 5.00508 18.9382 10.04C18.9382 12.4154 18.0266 14.5819 16.5348 16.2079L19.4702 19.1371C19.7449 19.4119 19.7458 19.8563 19.4711 20.131C19.3342 20.2698 19.1533 20.3382 18.9733 20.3382C18.7942 20.3382 18.6142 20.2698 18.4763 20.1329L15.5055 17.1704C13.9428 18.4219 11.9613 19.1712 9.80792 19.1712C4.77304 19.1712 0.676697 15.0748 0.676697 10.04C0.676697 5.00508 4.77304 0.909668 9.80792 0.909668ZM9.80792 2.31606C5.54843 2.31606 2.08309 5.78046 2.08309 10.04C2.08309 14.2994 5.54843 17.7648 9.80792 17.7648C14.0665 17.7648 17.5318 14.2994 17.5318 10.04C17.5318 5.78046 14.0665 2.31606 9.80792 2.31606Z" fill="#2B2C2D"/>
</svg>
