<svg width="16" height="17" viewBox="0 0 16 17" fill="none" xmlns="http://www.w3.org/2000/svg">
<path d="M1.17045 4.44654C1.33216 4.41522 1.49999 4.44813 1.63678 4.538C1.90699 4.71743 1.98534 5.07242 1.8148 5.34461L1.77006 5.43257C1.60098 5.8198 1.752 6.27784 2.13523 6.49196C2.44531 6.6775 2.70054 6.93873 2.87579 7.2499C3.4215 8.22879 3.08283 9.45368 2.10675 10.0313C1.69404 10.2619 1.55063 10.7754 1.78632 11.1787L2.27765 12.0062C2.38945 12.2033 2.57877 12.3475 2.80188 12.4052C3.02499 12.463 3.26256 12.4293 3.4597 12.3121C3.77756 12.1321 4.139 12.0384 4.50645 12.0409C5.68626 12.0409 6.64268 12.9749 6.64268 14.127C6.64659 14.5928 7.0344 14.9684 7.51142 14.9684L7.5043 14.9823C7.72562 14.9823 7.93014 15.0976 8.04081 15.2848C8.15147 15.472 8.15147 15.7026 8.04081 15.8897C7.93014 16.0769 7.72562 16.1922 7.5043 16.1922C6.32449 16.1922 5.36806 15.2583 5.36806 14.1061C5.36998 13.9595 5.33057 13.8152 5.25413 13.6889C5.01521 13.285 4.48719 13.1452 4.07208 13.376L3.94553 13.4381C2.96628 13.8803 1.79067 13.5385 1.22378 12.625L0.739563 11.7976C0.193855 10.8187 0.532525 9.59377 1.50861 9.01611C1.63798 8.94179 1.74581 8.83649 1.82192 8.71015C1.96473 8.51577 2.01605 8.27122 1.96305 8.03765C1.91005 7.80408 1.75774 7.60359 1.54421 7.48632L1.42554 7.41081C0.541441 6.80702 0.252196 5.64299 0.775167 4.70488L0.835814 4.62955C0.924158 4.53611 1.04108 4.4716 1.17045 4.44654ZM13.9389 6.45624C14.2195 6.35787 14.539 6.46456 14.6963 6.72143C14.8704 7.00767 14.7749 7.37746 14.4827 7.5489C14.3533 7.62323 14.2455 7.72853 14.1693 7.85486C14.0533 8.04831 14.0211 8.27899 14.0799 8.4957C14.1388 8.71241 14.2837 8.89723 14.4827 9.00916C15.4903 9.59897 15.8211 10.8726 15.2232 11.8601L14.739 12.6876L14.6617 12.8035C14.0434 13.6668 12.8514 13.9493 11.8907 13.4386C11.6243 13.2816 11.2916 13.2783 11.022 13.4302C10.7525 13.582 10.5888 13.8649 10.5947 14.1687C10.5606 14.4797 10.2919 14.7155 9.97164 14.7155C9.65139 14.7155 9.38267 14.4797 9.34858 14.1687C9.36387 13.4397 9.76791 12.7713 10.4142 12.406C11.0605 12.0407 11.8552 12.0315 12.5102 12.3817C12.707 12.4972 12.9434 12.5299 13.1653 12.472C13.3868 12.4114 13.5756 12.2693 13.6922 12.0757L14.1765 11.2482C14.2922 11.0558 14.3242 10.8262 14.2653 10.6106C14.2064 10.395 14.0616 10.2115 13.8631 10.1009C13.5295 9.90231 13.2603 9.61538 13.087 9.27339C12.5413 8.2945 12.8799 7.06962 13.856 6.49196L13.9389 6.45624ZM7.99563 5.66447C8.70507 5.66263 9.3861 5.93654 9.88841 6.42576C10.3907 6.91498 10.673 7.57929 10.673 8.27208L10.6686 8.42997C10.61 9.42437 9.97541 10.306 9.02517 10.6926C8.02493 11.0994 6.87216 10.8775 6.10495 10.1303C5.33774 9.38305 5.10736 8.25794 5.52135 7.2801C5.93534 6.30225 6.91207 5.66447 7.99563 5.66447ZM7.99563 6.88831C7.20909 6.88831 6.57148 7.51096 6.57148 8.27903C6.57148 9.0471 7.20909 9.66975 7.99563 9.66975C8.78217 9.66975 9.41978 9.0471 9.41978 8.27903L9.41506 8.16497C9.35565 7.45025 8.74284 6.88831 7.99563 6.88831ZM8.48696 0.358887C9.66677 0.358887 10.6232 1.29286 10.6232 2.44497C10.6213 2.59161 10.6607 2.73594 10.7371 2.86218C10.8505 3.05762 11.0393 3.20065 11.2613 3.25943C11.4833 3.3182 11.7202 3.28784 11.9192 3.17509C12.9216 2.6422 14.1759 2.97292 14.7675 3.92608C14.931 4.21696 14.8305 4.58198 14.5396 4.75356C14.2441 4.91832 13.8679 4.82262 13.6922 4.538L13.6363 4.45608C13.3761 4.11899 12.8939 4.01666 12.5102 4.23204C11.8563 4.58169 11.063 4.57316 10.4172 4.20951C9.77131 3.84587 9.36631 3.17973 9.34858 2.45192C9.3563 2.22399 9.26894 2.00276 9.10651 1.83891C8.94408 1.67505 8.7205 1.58259 8.48696 1.58272H7.51142C7.27727 1.58265 7.053 1.67489 6.88945 1.83852C6.7259 2.00216 6.63692 2.22333 6.64268 2.45192C6.63608 3.1837 6.23076 3.85662 5.57902 4.21784C4.92728 4.57907 4.12783 4.57388 3.48106 4.20422L3.45258 4.17641L3.38406 4.12831C3.14856 3.93811 3.08737 3.60248 3.2532 3.34198C3.4341 3.05779 3.81667 2.97062 4.10769 3.14728C4.23759 3.2213 4.38458 3.26197 4.53493 3.26549C4.76539 3.2749 4.99021 3.19443 5.15985 3.04182C5.32949 2.88921 5.43002 2.67698 5.43927 2.45192C5.43489 1.32112 6.35394 0.392803 7.51142 0.358887H8.48696Z" fill="#696969"/>
</svg>
